<svg width="24" height="24" viewBox="0 0 24 24" fill="none" xmlns="http://www.w3.org/2000/svg">
<g clip-path="url(#clip0)">
<path d="M23.9843 19.753C23.908 19.1763 23.5751 18.6791 23.071 18.3888L17.1501 14.9798C16.4249 14.5623 15.5049 14.6838 14.913 15.2757L13.7468 16.4419C13.4365 16.7523 12.9455 16.7798 12.605 16.5057C11.6856 15.7659 10.7803 14.9518 9.91445 14.0858C9.04855 13.2199 8.23438 12.3147 7.49454 11.3953C7.22049 11.0547 7.24791 10.5638 7.55835 10.2534L8.72453 9.08717C9.31638 8.49537 9.43809 7.57551 9.02045 6.85018L5.61143 0.929297C5.32116 0.425151 4.82396 0.092268 4.24724 0.0159672C3.67048 -0.0604892 3.10376 0.13187 2.6924 0.543231L0.93515 2.30054C-0.291315 3.52705 -0.311012 5.77057 0.879686 8.61791C2.02461 11.3557 4.16125 14.3696 6.8959 17.1044C9.63065 19.8391 12.6445 21.9757 15.3824 23.1206C16.784 23.7067 18.0391 23.9996 19.0988 23.9995C20.1919 23.9995 21.077 23.6879 21.6998 23.0651L23.457 21.3078C23.8683 20.8964 24.0605 20.3297 23.9843 19.753ZM16.7621 15.6536L22.683 19.0626C22.9758 19.2312 23.1692 19.52 23.2135 19.855C23.2507 20.1361 23.1776 20.4129 23.0121 20.6359L15.1433 16.1451L15.4629 15.8255C15.8066 15.4818 16.341 15.4111 16.7621 15.6536ZM4.14523 0.786803C4.48024 0.831122 4.76901 1.02447 4.93758 1.31728L8.3466 7.23817C8.58919 7.65943 8.51848 8.19374 8.17477 8.53741L7.88123 8.83095L3.36569 0.988182C3.55027 0.851493 3.77103 0.777265 4.00118 0.777265C4.04892 0.777265 4.09708 0.780427 4.14523 0.786803ZM21.1499 22.5153C20.1755 23.4897 18.1827 23.4488 15.6824 22.4032C13.0357 21.2965 10.1106 19.2193 7.44576 16.5545C4.78093 13.8897 2.70381 10.9646 1.59703 8.31794C0.551364 5.81758 0.51057 3.82474 1.48496 2.8503L2.78949 1.54572L7.31182 9.40035L7.00854 9.70364C6.41684 10.2954 6.36532 11.2321 6.88874 11.8828C7.646 12.8239 8.47904 13.7501 9.36458 14.6356C10.2502 15.5212 11.1764 16.3543 12.1175 17.1115C12.768 17.6349 13.7048 17.5835 14.2966 16.9917L14.5733 16.715L22.453 21.2121L21.1499 22.5153Z" fill="black"/>
</g>
<defs>
<clipPath id="clip0">
<rect width="24" height="24" fill="white"/>
</clipPath>
</defs>
</svg>
