<svg width="24" height="24" viewBox="0 0 24 24" fill="none" xmlns="http://www.w3.org/2000/svg">
<path d="M22.8 2.80005H1.2C0.537281 2.80005 0 3.33728 0 4.00005V20C0 20.6628 0.537234 21.2 1.2 21.2H22.8C23.4627 21.2 24 20.6628 24 20V4.00005C24 3.33733 23.4628 2.80005 22.8 2.80005ZM23.2 20.0001C23.2 20.221 23.0209 20.4001 22.8 20.4001H1.2C0.979078 20.4001 0.800016 20.221 0.800016 20.0001V4.00005C0.800016 3.77913 0.979078 3.60006 1.2 3.60006H22.8C23.0209 3.60006 23.2 3.77913 23.2 4.00005V20.0001Z" fill="black"/>
<path d="M22.0347 4.40145C21.929 4.39221 21.824 4.42535 21.7428 4.4936L12.5147 12.2456C12.2171 12.4957 11.7827 12.4957 11.4851 12.2456L2.25715 4.49356C2.1477 4.40168 1.99751 4.37515 1.86322 4.42399C1.72892 4.47284 1.63086 4.58965 1.60601 4.73042C1.58117 4.87118 1.6333 5.01448 1.74275 5.10635L10.9707 12.8579C11.5655 13.3587 12.4344 13.3587 13.0292 12.8579L22.2571 5.1064C22.3384 5.0382 22.3892 4.94051 22.3985 4.83481C22.4077 4.7291 22.3745 4.62406 22.3063 4.54282C22.2381 4.46149 22.1405 4.41068 22.0347 4.40145Z" fill="black"/>
<path d="M7.69337 12.8031C7.55176 12.7715 7.4042 12.819 7.30764 12.9273L1.70762 18.9273C1.60628 19.0311 1.56906 19.1816 1.6104 19.3207C1.65175 19.4597 1.76514 19.5655 1.9067 19.5971C2.04831 19.6287 2.19587 19.5811 2.29243 19.4729L7.89245 13.4729C7.99379 13.3691 8.03101 13.2185 7.98967 13.0795C7.94832 12.9405 7.83498 12.8347 7.69337 12.8031Z" fill="black"/>
<path d="M16.6923 12.9273C16.5958 12.819 16.4482 12.7715 16.3066 12.8031C16.165 12.8347 16.0516 12.9405 16.0103 13.0795C15.969 13.2186 16.0062 13.3691 16.1075 13.4729L21.7075 19.4729C21.8594 19.6284 22.1077 19.6342 22.2666 19.4859C22.4256 19.3376 22.437 19.0895 22.2924 18.9272L16.6923 12.9273Z" fill="black"/>
</svg>
