<svg width="24" height="24" viewBox="0 0 24 24" fill="none" xmlns="http://www.w3.org/2000/svg">
<path d="M12 0C5.37256 0 0 5.37256 0 12C0 18.6274 5.37256 24 12 24C18.6274 24 24 18.6274 24 12C23.9923 5.37576 18.6242 0.00769355 12 0ZM12 23.2258C5.80016 23.2258 0.774194 18.1998 0.774194 12C0.774194 5.80016 5.80016 0.774194 12 0.774194C18.1998 0.774194 23.2258 5.80016 23.2258 12C23.219 18.197 18.197 23.219 12 23.2258Z" fill="black"/>
<path d="M12.3871 11.8396V3.48378C12.3871 3.27 12.2138 3.09668 12 3.09668C11.7862 3.09668 11.6129 3.27 11.6129 3.48378V11.9999C11.6129 12.1026 11.6537 12.201 11.7263 12.2736L15.2102 15.7575C15.3639 15.906 15.609 15.9017 15.7575 15.748C15.9024 15.598 15.9024 15.3601 15.7575 15.2101L12.3871 11.8396Z" fill="black"/>
<path d="M12 1.54834C6.22772 1.54834 1.5484 6.22766 1.5484 12C1.5484 17.7722 6.22772 22.4516 12 22.4516C17.7723 22.4516 22.4516 17.7722 22.4516 12C22.4452 6.23032 17.7696 1.55473 12 1.54834ZM12 21.6774C6.65532 21.6774 2.32259 17.3446 2.32259 12C2.32259 6.65526 6.65532 2.32253 12 2.32253C17.3447 2.32253 21.6774 6.65526 21.6774 12C21.6715 17.3422 17.3422 21.6714 12 21.6774Z" fill="black"/>
</svg>
