<svg width="24" height="24" viewBox="0 0 24 24" fill="none" xmlns="http://www.w3.org/2000/svg">
<path d="M12 5.06763C10.4129 5.06763 9.12167 6.35878 9.12167 7.94592C9.12167 9.53307 10.4128 10.8242 12 10.8242C13.587 10.8242 14.8783 9.53307 14.8783 7.94592C14.8783 6.35878 13.587 5.06763 12 5.06763ZM12 10.1353C10.7927 10.1353 9.81064 9.15309 9.81064 7.94592C9.81064 6.73876 10.7927 5.7566 12 5.7566C13.2071 5.7566 14.1893 6.73876 14.1893 7.94592C14.1893 9.15309 13.2071 10.1353 12 10.1353Z" fill="black"/>
<path d="M17.6189 2.23742C16.1803 0.794605 14.1848 0 12 0C9.81523 0 7.81972 0.794605 6.38104 2.23742C4.85877 3.76415 4.05411 5.87941 4.05411 8.35454C4.05411 10.2182 4.43449 12.1689 5.1846 14.1526C5.78852 15.7496 6.63388 17.3754 7.69723 18.9849C9.56452 21.8111 11.5154 23.6872 11.7318 23.892C11.8055 23.9616 11.9007 24 12 24C12.0992 24 12.1944 23.9617 12.2684 23.8919C12.4846 23.6872 14.4357 21.8111 16.3028 18.9849C17.3661 17.3755 18.2115 15.7496 18.8154 14.1526C19.5656 12.169 19.9459 10.2182 19.9459 8.35461C19.9459 5.87941 19.1412 3.76415 17.6189 2.23742ZM15.7279 18.6051C14.1791 20.9494 12.5774 22.6191 12 23.1919C11.4223 22.6189 9.82075 20.9493 8.27204 18.6051C5.93032 15.0608 4.74301 11.6121 4.74301 8.35461C4.74301 3.84121 7.72721 0.689035 12 0.689035C16.2728 0.689035 19.257 3.84121 19.257 8.35468C19.2569 11.6121 18.0696 15.0609 15.7279 18.6051Z" fill="black"/>
</svg>
