<svg width="24" height="24" fill="none" xmlns="http://www.w3.org/2000/svg"><path d="M22.8 2.8H1.2A1.2 1.2 0 0 0 0 4v16a1.2 1.2 0 0 0 1.2 1.2h21.6A1.2 1.2 0 0 0 24 20V4a1.2 1.2 0 0 0-1.2-1.2zm.4 17.2a.4.4 0 0 1-.4.4H1.2a.4.4 0 0 1-.4-.4V4c0-.22.18-.4.4-.4h21.6c.22 0 .4.18.4.4v16z" fill="#000"/><path d="M22.035 4.401a.4.4 0 0 0-.292.093l-9.228 7.752a.8.8 0 0 1-1.03 0L2.257 4.494a.4.4 0 1 0-.514.612l9.228 7.752a1.6 1.6 0 0 0 2.058 0l9.228-7.752a.4.4 0 0 0-.222-.705zM7.693 12.803a.4.4 0 0 0-.385.124l-5.6 6a.4.4 0 1 0 .584.546l5.6-6a.4.4 0 0 0-.199-.67zm8.999.124a.4.4 0 1 0-.584.546l5.6 6a.4.4 0 0 0 .584-.546l-5.6-6z" fill="#000"/></svg>