<svg width="24" height="24" fill="none" xmlns="http://www.w3.org/2000/svg"><path d="M12 0C5.373 0 0 5.373 0 12s5.373 12 12 12 12-5.373 12-12C23.992 5.376 18.624.008 12 0zm0 23.226C5.8 23.226.774 18.2.774 12 .774 5.8 5.8.774 12 .774 18.2.774 23.226 5.8 23.226 12 23.219 18.197 18.197 23.219 12 23.226z" fill="#000"/><path d="M12.387 11.84V3.484a.387.387 0 1 0-.774 0V12c0 .103.04.201.113.274l3.484 3.484a.387.387 0 0 0 .547-.548l-3.37-3.37z" fill="#000"/><path d="M12 1.548C6.228 1.548 1.548 6.228 1.548 12S6.228 22.452 12 22.452 22.452 17.772 22.452 12C22.445 6.23 17.77 1.555 12 1.548zm0 20.13c-5.345 0-9.677-4.333-9.677-9.678 0-5.345 4.332-9.677 9.677-9.677S21.677 6.655 21.677 12c-.005 5.342-4.335 9.671-9.677 9.677z" fill="#000"/></svg>