<svg width="24" height="24" fill="none" xmlns="http://www.w3.org/2000/svg"><path d="M12 5.068a2.882 2.882 0 0 0-2.878 2.878A2.881 2.881 0 0 0 12 10.824a2.882 2.882 0 0 0 2.878-2.878A2.882 2.882 0 0 0 12 5.068zm0 5.067a2.192 2.192 0 0 1-2.19-2.19c0-1.206.983-2.188 2.19-2.188 1.207 0 2.19.982 2.19 2.189s-.983 2.19-2.19 2.19z" fill="#000"/><path d="M17.619 2.237C16.18.795 14.185 0 12 0 9.815 0 7.82.795 6.381 2.237 4.859 3.764 4.054 5.88 4.054 8.355c0 1.863.38 3.814 1.13 5.798.605 1.597 1.45 3.222 2.513 4.832 1.868 2.826 3.818 4.702 4.035 4.907a.39.39 0 0 0 .536 0c.217-.205 2.168-2.08 4.035-4.907 1.063-1.61 1.909-3.235 2.512-4.832.75-1.984 1.13-3.935 1.13-5.798 0-2.476-.804-4.59-2.326-6.118zm-1.891 16.368A30.08 30.08 0 0 1 12 23.192a30.07 30.07 0 0 1-3.728-4.587c-2.342-3.544-3.529-6.993-3.529-10.25C4.743 3.84 7.727.689 12 .689s7.257 3.152 7.257 7.666c0 3.257-1.187 6.706-3.53 10.25z" fill="#000"/></svg>